# xmcd CD database file
#
# Track frame offsets:
#	150
#	27699
#	64167
#	104513
#	139357
#	171059
#	204618
#	234625
#	253102
#
# Disc length: 3768 seconds
#
# Revision: 0
# Processed by: cddbd v1.5.2PL0 Copyright (c) Steve Scherf et al.
# Submitted via: CDex 1.70beta2
#
DISCID=8a0eb609
DTITLE=Marcus Strickland - Of Song
DYEAR=2009
DGENRE=Jazz
TTITLE0=Ne Me Quitte Pas
TTITLE1=Djorolen
TTITLE2=What's New
TTITLE3=Is This Love?
TTITLE4=Pinocchio
TTITLE5=It's A Man's Man's World
TTITLE6=The Party's Over
TTITLE7=Shadowlands
TTITLE8=A Memory's Mourn
EXTD=YEAR: 2009
EXTT0=
EXTT1=
EXTT2=
EXTT3=
EXTT4=
EXTT5=
EXTT6=
EXTT7=
EXTT8=
PLAYORDER=
